<?xml version="1.0" encoding="UTF-8"?>
<svg xmlns="http://www.w3.org/2000/svg" viewBox="0 0 512 512" width="512" height="512">
<path d="M252.01 10.75C256.05 10.75 260.09 10.74 264.13 10.73C266.61 11.45 269.37 10.49 271.9 10.99C272.71 11.15 273.1 11.78 273.86 11.96C275.18 12.26 276.65 11.73 277.98 12C281.57 12.73 285.25 13.96 288.75 14.93C291.8 15.78 296.17 15.73 298.55 17.99C301.64 17.97 303.8 19.98 306.58 20.91C311.21 22.45 324.68 28.09 327.31 32.03C329.74 31.91 332.2 35.6 334.27 36.74C340.44 40.13 347.7 46.66 351.37 52.85C353.03 55.63 356.33 57.51 357.87 60.35C364.08 71.85 371.47 82.53 378.26 93.7C380.23 96.94 383.35 99.37 385.22 102.66C385.81 103.69 387.21 104.22 387.79 105.24C391.38 111.58 394.76 118.69 396.94 125.58C397.63 127.79 397.34 130.26 398.09 132.45C399.08 135.32 400.01 137.22 400.02 140.51C401.9 142.31 400.48 144.74 401.04 147.05C401.23 147.83 401.87 148.16 402.02 148.94C403.11 154.82 400.45 166.2 402.11 171.34C402.74 173.32 408.91 174.09 410.82 175.28C413.49 176.92 418.54 182.83 419.88 185.46C420.75 187.17 420.75 189.08 422.03 190.54C422.44 193.71 422.85 196.89 423.26 200.07C423.25 205.39 423.24 210.71 423.23 216.03C422.95 217.71 423.42 219.69 422.98 221.31C421.51 226.67 419.99 232.35 417.86 237.63C416.39 241.29 410.38 249.76 410.03 252.73C410.45 254.08 411.45 255.21 411.91 256.52C412.82 259.07 413.31 261.7 414.04 264.29C414.36 265.42 415.47 266.37 415.9 267.42C417.65 271.6 418.72 276.46 419.97 280.8C420.51 282.68 422.11 291.69 423.01 292.47C423.08 294.27 423.15 296.08 423.21 297.88C423.46 300.21 423.71 302.54 423.95 304.86C423.95 307.04 423.95 309.23 423.95 311.41C423.71 313.6 423.47 315.79 423.23 317.99C422.83 321.48 422.43 324.98 422.02 328.47C420.36 330.33 418.95 339.43 417.94 342.44C417.6 343.47 416.6 344.41 416.2 345.4C414.17 350.4 412.46 355.63 409.88 360.6C408.68 362.92 406.67 364.97 405.31 367.21C403.51 370.14 400.37 376.73 396.27 376.88C395.75 373.99 395.23 371.11 394.7 368.22C392.4 369.3 388.46 379.1 385.78 381.79C376.98 390.6 368.68 399.3 358.24 405.28C355.07 407.11 352.98 411.18 349.98 413.34C350.05 415.08 348.79 415.15 348.11 416.52C346.44 419.86 345.16 423.23 344.1 426.69C343.84 427.55 344.23 428.53 343.97 429.38C343.06 432.42 342.19 435.55 341.11 438.53C340.77 439.49 341.23 440.6 340.86 441.56C336.1 454.01 328.57 469.94 316.21 477.3C315.22 477.89 314.69 479.31 313.67 479.86C307.72 483.13 301.97 487.36 295.62 489.87C292.82 490.98 287.67 492.09 285.46 494.03C283 494 274.22 497.06 271.4 497.94C269.33 498.58 267.01 497.52 265.01 498.44C260.23 498.32 255.46 498.19 250.68 498.07C242.53 497.78 234.93 495.57 227.51 492.89C226.48 492.52 225.55 491.52 224.54 491.14C208.38 484.96 192.74 475.11 183.81 459.36C183.44 458.72 182.54 458.38 182.18 457.73C178.07 450.38 175.9 442.26 173.1 434.53C172.2 432.04 172.61 429.29 171.93 426.73C171.01 423.3 169.47 419.68 167.82 416.46C164.31 409.59 156.5 404.48 150.25 400.79C149.26 400.2 148.72 398.8 147.7 398.24C141.96 395.04 136.92 388.55 132.21 383.77C130.02 381.55 126.51 377.28 125.09 374.55C123.97 372.37 123.46 369.59 121.34 368.13C120.71 371.1 120.09 374.06 119.47 377.02C116.63 376.35 114.11 372.76 112.84 370.38C111.92 368.68 110.09 367.4 109.17 365.69C107.31 362.22 105.49 358.81 103.7 355.26C99.72 347.35 96.55 337.76 94.05 329.37C93.12 326.26 93.86 322.76 92.92 319.66C91.51 315.02 91 304.1 92 299.02C92.15 298.21 92.78 297.88 92.96 297.13C93.27 295.79 92.72 294.29 93 292.95C93.17 292.16 93.8 291.83 93.97 291.06C94.52 288.54 94.33 286.11 95.04 283.65C95.76 281.13 97.04 279.41 96.97 276.57C98.96 274.11 102.84 260.45 104.03 256.59C104.54 254.91 106.36 253.83 105.94 251.83C105.59 250.14 104.02 249.17 103.22 247.76C101.44 244.62 99.58 240.99 98.19 237.68C94.73 229.41 89.79 209.18 92.01 199.9C92.19 199.12 92.82 198.79 92.97 198.01C93.23 196.66 92.68 195.16 93.01 193.83C94.38 188.34 99.74 178.31 105.26 175.2C107.14 174.14 113.38 173.24 113.94 171.29C115.68 165.31 112.59 155.19 113.99 148.93C114.15 148.24 114.69 148.04 114.9 147.43C115.55 145.6 114.43 143.34 115.08 141.51C115.79 139.5 116.6 137.01 116.98 134.9C117.16 133.86 116.74 132.71 117.03 131.68C117.41 130.29 118.32 128.89 118.88 127.62C119.97 125.1 120.16 122.12 121.1 119.51C125.01 108.65 131.59 102.56 137.33 93.12C139.16 90.11 142.12 87.77 143.79 84.66C148.24 76.35 153.66 68.55 158.22 60.25C159.77 57.42 163.12 55.57 164.71 52.77C166.51 49.62 172.9 42.18 176.18 40.3C179.08 38.64 181.48 35.86 184.17 34.3C187.31 32.47 190.2 29.77 193.43 28.13C195.75 26.94 198.26 26.1 200.57 24.9C202.81 23.74 205.06 22.01 207.45 21.11C217.44 17.37 227.54 14.92 237.78 12.03C242.12 10.8 247.69 11.93 252.01 10.75ZM318.19 212.32C321.92 212.11 326.43 214.67 330.02 215.83C337.17 218.15 346.11 218.14 352.64 213.99C358.74 210.1 365.12 204.21 367.73 197.31C369.67 192.2 368.61 187.32 368.06 182.12C367.69 178.62 367.66 175.1 366.78 171.66C363.96 160.62 355.21 150.32 344.54 146.16C331.59 141.11 319.27 147.25 307.79 152.79C292.73 160.06 275.81 167.61 258.81 167.83C241.84 168.05 225.39 160.63 210.3 153.69C197.71 147.91 185.5 141.12 171.28 146.23C160.82 149.98 151.99 160.82 149.19 171.39C148.21 175.07 148.29 178.85 147.84 182.59C147.23 187.73 146.3 192.47 148.24 197.53C150.81 204.2 157.23 210.2 163.2 213.89C169.98 218.09 178.79 218.16 186.18 215.83C189.73 214.72 193.91 212.18 197.62 212.05C200.42 217.97 190.97 228.5 188.06 233.64C178.51 250.52 172.54 263.71 172.02 283.59C171.93 287.14 171.54 299.03 173.71 301.49C177.66 297.91 178.25 288.96 183.99 287.23C185.23 291.12 184.08 296.34 184.01 300.42C183.84 310.08 183.68 319.75 183.64 329.41C183.53 352.07 184.26 374.77 187.57 397.21C189.11 407.68 190.51 418.43 194.21 428.42C201.62 448.43 219.88 456.05 239.63 459.11C266.96 463.33 302.89 460.84 318.79 434.98C324.46 425.76 326.91 408.4 328.25 397.68C331.3 373.29 332.82 348.88 332.36 324.27C332.21 316.01 332.12 307.74 331.92 299.48C331.82 295.71 330.82 290.93 331.95 287.33C335.77 287.84 339.87 298.31 341.57 301.57C343.33 300.34 343.1 297.73 343.21 295.74C343.51 290.57 344.05 285.51 343.73 280.31C342.7 263.54 337.29 249.63 328.84 235.31C325.17 229.08 316.17 220.05 318.19 212.32ZM223.7 181.65C216.42 189.57 197.64 194.16 188.03 189.09C183.19 186.54 175.98 178.93 177.35 172.83C178.42 168.07 184.92 167.78 188.67 167.99C193.05 168.24 197.09 171.05 200.98 172.81C205.65 174.93 210.7 176.08 215.44 178C217.95 179.02 222.07 179.5 223.7 181.65ZM292.13 181.65C293.63 179.52 298.15 178.81 300.63 177.9C305.47 176.13 310.46 174.84 315.19 172.78C319.2 171.03 323.02 168.26 327.54 168.02C331.37 167.81 337.96 168.24 338.65 173.24C339.51 179.41 332.72 186.6 327.78 189.15C317.97 194.21 299.69 189.39 292.13 181.65ZM249.92 224.15C247.13 225.28 243.63 223.16 241.04 222.08C235.59 219.83 216.3 215.36 221.42 206.21C222.22 204.78 223.53 203.61 224.79 202.58C234.7 194.48 240.96 204.89 246.1 212.85C248.22 216.14 251.13 220.1 249.92 224.15ZM266.01 224.2C264.27 220.4 268.08 215.44 270.11 212.38C276.13 203.29 284.47 192.22 294.05 205.57C300.86 215.07 280.09 219.84 274.71 222.1C271.99 223.24 268.98 224.95 266.01 224.2ZM309.3 312.21C306.95 311.15 306.73 306.68 306.04 304.37C304.26 298.38 302.55 292.56 300.35 286.72C299.63 284.81 299.07 282.13 297.24 280.92C296.62 280.52 285.11 278.01 283.23 277.56C267.74 273.91 250.52 274.06 234.95 277.21C231.17 277.97 227.52 279.53 223.74 280.13C221.8 280.44 219.65 279.99 218.14 281.49C214.12 285.47 211.62 299.09 209.6 304.74C208.76 307.08 208.91 311.14 206.44 312.26C202.18 309.65 200.38 302.83 198.89 298.41C193.73 283.11 194.34 269.53 210.49 262.14C238.26 249.43 277.22 249.45 305.07 261.89C321.91 269.42 321.55 282.35 317.13 298.14C315.93 302.47 313.7 310.08 309.3 312.21ZM230.81 348.51C240.79 347.12 247.93 354.61 257.4 354.91C269.75 355.3 277.82 343.66 291.43 350.33C304.53 356.76 300.78 370.39 297.22 381.65C295.47 387.2 294 392.51 291.38 397.75C289.37 401.76 287.26 405.91 283.75 408.83C270.47 419.93 245.66 420.2 232.37 408.91C226.04 403.53 222.23 394.14 219.95 386.33C216.4 374.21 209.79 358.1 224.09 350.57C226.18 349.47 228.48 348.84 230.81 348.51ZM207.37 398.49C210.17 399.48 211.76 403.65 213.21 406.09C215.84 410.51 222.13 421.46 226.41 423.77C230.25 425.83 235.38 426.19 239.62 426.99C251.88 429.3 263.86 429.3 276.14 427.03C280.81 426.17 286.98 426.04 290.81 422.91C294.04 420.27 300.49 410.18 302.71 406.28C304.08 403.89 305.66 399.54 308.37 398.54C310.58 401.02 310.7 406.62 310.98 409.83C312.22 424.02 309.53 432.63 296.24 438.62C275.86 447.8 240.75 447.36 220.19 438.83C206.78 433.27 204.77 425.97 204.8 412.17C204.81 408.28 205.03 401.72 207.37 398.49Z" fill="#d50508" fill-rule="evenodd" stroke="#d50508" stroke-width="0.25" stroke-linejoin="round"/>
<path d="M264.13 10.73C260.09 10.74 256.05 10.75 252.01 10.75C252.25 10.5 252.49 10.25 252.73 10C256.31 10 259.9 10 263.48 10C263.7 10.24 263.91 10.49 264.13 10.73ZM318.19 212.32C316.17 220.05 325.17 229.08 328.84 235.31C337.29 249.63 342.7 263.54 343.73 280.31C344.05 285.51 343.51 290.57 343.21 295.74C343.1 297.73 343.33 300.34 341.57 301.57C339.87 298.31 335.77 287.84 331.95 287.33C330.82 290.93 331.82 295.71 331.92 299.48C332.12 307.74 332.21 316.01 332.36 324.27C332.82 348.88 331.3 373.29 328.25 397.68C326.91 408.4 324.46 425.76 318.79 434.98C302.89 460.84 266.96 463.33 239.63 459.11C219.88 456.05 201.62 448.43 194.21 428.42C190.51 418.43 189.11 407.68 187.57 397.21C184.26 374.77 183.53 352.07 183.64 329.41C183.68 319.75 183.84 310.08 184.01 300.42C184.08 296.34 185.23 291.12 183.99 287.23C178.25 288.96 177.66 297.91 173.71 301.49C171.54 299.03 171.93 287.14 172.02 283.59C172.54 263.71 178.51 250.52 188.06 233.64C190.97 228.5 200.42 217.97 197.62 212.05C193.91 212.18 189.73 214.72 186.18 215.83C178.79 218.16 169.98 218.09 163.2 213.89C157.23 210.2 150.81 204.2 148.24 197.53C146.3 192.47 147.23 187.73 147.84 182.59C148.29 178.85 148.21 175.07 149.19 171.39C151.99 160.82 160.82 149.98 171.28 146.23C185.5 141.12 197.71 147.91 210.3 153.69C225.39 160.63 241.84 168.05 258.81 167.83C275.81 167.61 292.73 160.06 307.79 152.79C319.27 147.25 331.59 141.11 344.54 146.16C355.21 150.32 363.96 160.62 366.78 171.66C367.66 175.1 367.69 178.62 368.06 182.12C368.61 187.32 369.67 192.2 367.73 197.31C365.12 204.21 358.74 210.1 352.64 213.99C346.11 218.14 337.17 218.15 330.02 215.83C326.43 214.67 321.92 212.11 318.19 212.32ZM223.7 181.65C222.07 179.5 217.95 179.02 215.44 178C210.7 176.08 205.65 174.93 200.98 172.81C197.09 171.05 193.05 168.24 188.67 167.99C184.92 167.78 178.42 168.07 177.35 172.83C175.98 178.93 183.19 186.54 188.03 189.09C197.64 194.16 216.42 189.57 223.7 181.65ZM292.13 181.65C299.69 189.39 317.97 194.21 327.78 189.15C332.72 186.6 339.51 179.41 338.65 173.24C337.96 168.24 331.37 167.81 327.54 168.02C323.02 168.26 319.2 171.03 315.19 172.78C310.46 174.84 305.47 176.13 300.63 177.9C298.15 178.81 293.63 179.52 292.13 181.65ZM249.92 224.15C251.13 220.1 248.22 216.14 246.1 212.85C240.96 204.89 234.7 194.48 224.79 202.58C223.53 203.61 222.22 204.78 221.42 206.21C216.3 215.36 235.59 219.83 241.04 222.08C243.63 223.16 247.13 225.28 249.92 224.15ZM266.01 224.2C268.98 224.95 271.99 223.24 274.71 222.1C280.09 219.84 300.86 215.07 294.05 205.57C284.47 192.22 276.13 203.29 270.11 212.38C268.08 215.44 264.27 220.4 266.01 224.2ZM423.26 200.07C424.29 200.76 424.35 215.24 423.23 216.03C423.24 210.71 423.25 205.39 423.26 200.07ZM309.3 312.21C313.7 310.08 315.93 302.47 317.13 298.14C321.55 282.35 321.91 269.42 305.07 261.89C277.22 249.45 238.26 249.43 210.49 262.14C194.34 269.53 193.73 283.11 198.89 298.41C200.38 302.83 202.18 309.65 206.44 312.26C208.91 311.14 208.76 307.08 209.6 304.74C211.62 299.09 214.12 285.47 218.14 281.49C219.65 279.99 221.8 280.44 223.74 280.13C227.52 279.53 231.17 277.97 234.95 277.21C250.52 274.06 267.74 273.91 283.23 277.56C285.11 278.01 296.62 280.52 297.24 280.92C299.07 282.13 299.63 284.81 300.35 286.72C302.55 292.56 304.26 298.38 306.04 304.37C306.73 306.68 306.95 311.15 309.3 312.21ZM423.21 297.88C424.76 299.04 423.99 303.02 423.95 304.86C423.71 302.54 423.46 300.21 423.21 297.88ZM423.95 311.41C423.92 313.51 423.89 315.62 423.86 317.72C423.65 317.81 423.44 317.9 423.23 317.99C423.47 315.79 423.71 313.6 423.95 311.41ZM230.81 348.51C228.48 348.84 226.18 349.47 224.09 350.57C209.79 358.1 216.4 374.21 219.95 386.33C222.23 394.14 226.04 403.53 232.37 408.91C245.66 420.2 270.47 419.93 283.75 408.83C287.26 405.91 289.37 401.76 291.38 397.75C294 392.51 295.47 387.2 297.22 381.65C300.78 370.39 304.53 356.76 291.43 350.33C277.82 343.66 269.75 355.3 257.4 354.91C247.93 354.61 240.79 347.12 230.81 348.51ZM207.37 398.49C205.03 401.72 204.81 408.28 204.8 412.17C204.77 425.97 206.78 433.27 220.19 438.83C240.75 447.36 275.86 447.8 296.24 438.62C309.53 432.63 312.22 424.02 310.98 409.83C310.7 406.62 310.58 401.02 308.37 398.54C305.66 399.54 304.08 403.89 302.71 406.28C300.49 410.18 294.04 420.27 290.81 422.91C286.98 426.04 280.81 426.17 276.14 427.03C263.86 429.3 251.88 429.3 239.62 426.99C235.38 426.19 230.25 425.83 226.41 423.77C222.13 421.46 215.84 410.51 213.21 406.09C211.76 403.65 210.17 399.48 207.37 398.49ZM250.68 498.07C255.46 498.19 260.23 498.32 265.01 498.44C260.45 498.59 255.89 498.74 251.32 498.89C251.11 498.62 250.9 498.34 250.68 498.07Z" fill="#13110f" fill-rule="evenodd" stroke="#13110f" stroke-width="0.25" stroke-linejoin="round"/>
</svg>